<mxfile host="app.diagrams.net" modified="2023-04-20T12:09:40.732Z" agent="Mozilla/5.0 (Windows NT 10.0; Win64; x64) AppleWebKit/537.36 (KHTML, like Gecko) Chrome/112.0.0.0 Safari/537.36" version="21.2.1" etag="jj9hGUlyKY_Ihh2nDExZ" type="github">
  <diagram name="PÃ¡gina-1" id="cAS3WnG_v6KVLWN28Hq8">
    <mxGraphModel>
      <root>
        <mxCell id="0" />
        <mxCell id="1" parent="0" />
      </root>
    </mxGraphModel>
  </diagram>
</mxfile>
